<svg id="Layer_1" xmlns="http://www.w3.org/2000/svg" viewBox="0 0 100 100"><style>.st0{fill:none;stroke:#333333;stroke-width:4;stroke-linecap:round;stroke-linejoin:round;} .st1{fill:#8DE7FF;} .st2{fill:#33C3F4;} .st3{fill:none;stroke:#333333;stroke-width:2;stroke-linecap:round;stroke-linejoin:round;}</style><path class="st0" d="M29.8 14.6H5.5M25.5 21.6h-9.4M96.5 71.6H82.7M89.4 63.6h-5.9M79.7 18.6h-9.2M16.1 68.6h-8"/><path class="st1" d="M49.4 68.3l-17.2 9.1 3.3-19.2-13.9-13.6 19.2-2.8 8.6-17.4"/><path class="st2" d="M49.4 24.4l8.7 17.4 19.2 2.8-13.9 13.6 3.3 19.2-17.3-9.1"/><path class="st0" d="M48.1 5.4c.8-1.5 3-1.5 3.7 0l12.8 25.9c.6 1.2 1.7 2 3 2.2l28.6 4.2c1.7.2 2.4 2.3 1.1 3.5L76.7 61.3c-.9.9-1.4 2.2-1.2 3.5l4.9 28.5c.3 1.7-1.5 3-3 2.2L51.9 82.1c-1.2-.6-2.6-.6-3.7 0L22.6 95.5c-1.5.8-3.3-.5-3-2.2l4.9-28.5c.2-1.3-.2-2.6-1.1-3.5L2.6 41.2C1.4 40 2 37.9 3.7 37.7l28.6-4.2c1.3-.2 2.4-1 3-2.2L48.1 5.4z"/><path class="st3" d="M28.5 39.4l5.8-.8c2.5-.4 4.6-1.9 5.7-4.2l3.4-6.8"/><path class="st3" d="M50 24.4l8.7 17.4 19.2 2.8L64 58.2l3.3 19.2L50 68.3l-17.2 9.1 3.3-19.2-13.9-13.6 19.2-2.8zM39.3 79.2L28.4 85c-.7.3-1.4-.3-1.2-1l2.2-7.4"/></svg>