<svg xmlns="http://www.w3.org/2000/svg" width="100" height="100" viewBox="0 0 100 100"><path fill="#33C3F4" d="M80.598 58.04l-14.96-18.48-22 24.64-12.32-11.44L19 65.08V73h61.598"/><path fill="#8DE7FF" d="M66.313 39.56L44 65l26-21-3.687-4.44zM19.375 65.75L19 67l15-11-2.556-2.32-12.07 12.07z"/><path fill="none" stroke="#333" stroke-width="4" stroke-linecap="round" stroke-linejoin="round" d="M10 80c0 1.104.896 2 2 2h76c1.104 0 2-.896 2-2V22c0-1.104-.896-2-2-2H12c-1.104 0-2 .896-2 2v58z"/><path fill="none" stroke="#333" stroke-width="2" stroke-linecap="round" stroke-linejoin="round" d="M19 29h62v44H19z"/><path fill="none" stroke="#333" stroke-width="4" stroke-linecap="round" stroke-linejoin="round" d="M40 92h20M60 10H40M2 18V2h16"/><path fill="none" stroke="#333" stroke-width="2" stroke-linecap="round" stroke-linejoin="round" d="M8 14V8h6"/><path fill="none" stroke="#333" stroke-width="4" stroke-linecap="round" stroke-linejoin="round" d="M98 18V2H82"/><path fill="none" stroke="#333" stroke-width="2" stroke-linecap="round" stroke-linejoin="round" d="M92 14V8h-6"/><path fill="none" stroke="#333" stroke-width="4" stroke-linecap="round" stroke-linejoin="round" d="M2 82v16h16"/><path fill="none" stroke="#333" stroke-width="2" stroke-linecap="round" stroke-linejoin="round" d="M8 86v6h6"/><path fill="none" stroke="#333" stroke-width="4" stroke-linecap="round" stroke-linejoin="round" d="M98 82v16H82"/><path fill="none" stroke="#333" stroke-width="2" stroke-linecap="round" stroke-linejoin="round" d="M92 86v6h-6M19.2 65.08l12.32-12.32L43.838 64.2l22-24.64 14.96 18.48M57 59l8.934-10M27.258 64.4L32 60"/><circle fill="none" stroke="#333" stroke-width="2" stroke-linecap="round" stroke-linejoin="round" cx="28.88" cy="38.68" r="6.159"/></svg>