<svg baseProfile="tiny" xmlns="http://www.w3.org/2000/svg" viewBox="0 0 100 100"><path fill="#33C3F4" d="M1.6 39.1h78.8v14H1.6z"/><path fill="#8DE7FF" d="M3.6 39.1h5v14h-5z"/><path fill="#8DE7FF" d="M2.9 39.1h77.2v3H2.9z"/><path fill="#33C3F4" d="M18.6 3.2h78.8v14H18.6z"/><path fill="#8DE7FF" d="M20.6 3.2h5v14h-5z"/><path fill="#8DE7FF" d="M19.9 3.2h77.2v3H19.9z"/><path fill="none" stroke="#333" stroke-width="4" stroke-linecap="round" stroke-linejoin="round" d="M81.4 94c0 2.2-1.8 4-4 4H5.6c-2.2 0-4-1.8-4-4V42.1c0-2.2 1.8-4 4-4h71.8c2.2 0 4 1.8 4 4V94z"/><path fill="none" stroke="#333" stroke-width="2" stroke-linecap="round" stroke-linejoin="round" d="M1.6 54.1h79.8"/><path fill="none" stroke="#333" stroke-width="4" stroke-linecap="round" stroke-linejoin="round" d="M18.6 37.2v-31c0-2.2 1.8-4 4-4h71.8c2.2 0 4 1.8 4 4v49.9c0 2.2-1.8 4-4 4h-12"/><path fill="none" stroke="#333" stroke-width="2" stroke-linecap="round" stroke-linejoin="round" d="M18.6 18.2h79.8"/><ellipse fill="none" stroke="#333" stroke-width="2" stroke-linecap="round" stroke-linejoin="round" cx="88.4" cy="10.2" rx="3" ry="3"/><ellipse fill="none" stroke="#333" stroke-width="2" stroke-linecap="round" stroke-linejoin="round" cx="78.4" cy="10.2" rx="3" ry="3"/><path fill="none" stroke="#333" stroke-width="2" stroke-linecap="round" stroke-linejoin="round" d="M70.4 3.2v15M68.6 43.3l5.7 5.7M74.3 43.3L68.6 49M57.5 46.1h8M8.6 59.1h23.9v16H8.6zM8.6 81.1h23.9v10H8.6zM64.5 63.1h7.9M39.5 63.1h20M82.4 25.2h7M59.5 25.2h17.9M26.6 25.2h26.9M50.5 32.2h9M26.6 32.2h17.9M53.5 70.1h18.9M39.5 70.1h8M55.5 83.1h16.9M39.5 83.1h11M58.5 89h13.9"/><path fill="none" stroke="#333" stroke-width="4" stroke-linecap="round" stroke-linejoin="round" d="M13.6 15.2h-12M13.6 24.2h-5M86.4 77.1h11M86.4 86h6"/></svg>