<svg id="Layer_1" xmlns="http://www.w3.org/2000/svg" viewBox="0 0 100 100"><style>.st0{fill:none;stroke:#333333;stroke-width:2;stroke-linecap:round;stroke-linejoin:round;} .st1{fill:#33C3F4;} .st2{fill:#8DE7FF;} .st3{fill:none;stroke:#333333;stroke-width:4;stroke-linecap:round;stroke-linejoin:round;}</style><ellipse class="st0" cx="81.3" cy="30" rx="3" ry="3"/><ellipse class="st0" cx="71.2" cy="30" rx="3" ry="3"/><path class="st1" d="M19.2 9h71.2v9H19.2z"/><path class="st2" d="M19.2 10h71.2v2H19.2z"/><path class="st3" d="M50.5 71H96c1.1 0 2-.9 2-2V4c0-1.1-.9-2-2-2H13.1c-1.1 0-2 .9-2 2v31"/><path class="st0" d="M18.2 35V9h72.7v55H49.5"/><path class="st3" d="M2 36h46.5v62H2z"/><path class="st0" d="M7 42h36.4v50H7z"/><path class="st1" d="M13.1 48h14.1v12H13.1zM13.1 66h14.1v8H13.1z"/><path class="st0" d="M29.3 35v-7h24.2v12h-5"/><path class="st2" d="M13.1 66h4v8h-4zM13.1 48h4v12h-4z"/><path class="st0" d="M19.2 19h71.2M13.1 66h14.1v8H13.1zM13.1 48h14.1v12H13.1zM62.6 14h21.3M73.2 56h10.1M48.5 56h14.6M63.1 46h20.2M48.5 46h9.1"/><path class="st3" d="M72.2 73v12H49.5"/><path class="st0" d="M49.5 79h21.7M36.4 80h2M27.3 80h4M12.1 80h11.1M12.1 85h26.3"/><path class="st3" d="M49.5 93h35.8"/></svg>