<svg xmlns="http://www.w3.org/2000/svg" width="100" height="100" viewBox="0 0 100 100"><path fill="#33C3F4" d="M69.596 18.022l-7.224 13.515c5.94 3.99 9.85 10.77 9.85 18.463 0 7.608-3.824 14.322-9.654 18.33l7.227 13.52C80.425 75.23 87.502 63.446 87.502 50c0-13.53-7.165-25.383-17.906-31.978z"/><path fill="#8DE7FF" d="M38.84 68.563C32.813 64.587 28.832 57.76 28.832 50c0-7.844 4.068-14.735 10.207-18.69l-7.22-13.504C20.88 24.356 13.553 36.32 13.553 50c0 13.597 7.234 25.5 18.063 32.077l7.224-13.514z"/><path fill="none" stroke="#333" stroke-width="4" stroke-linecap="round" stroke-linejoin="round" d="M62.65 68c5.653-3.98 9.346-10.56 9.346-18 0-7.722-3.978-14.516-9.996-18.44M39 30.944C32.426 34.75 28.004 41.858 28.004 50c0 8.103 4.38 15.184 10.903 19"/><path fill="none" stroke="#333" stroke-width="4" stroke-linecap="round" stroke-linejoin="round" d="M71 81.075C80.957 74.333 87.5 62.932 87.5 50c0-12.93-6.542-24.332-16.497-31.073M31 17.662C19.93 24.18 12.5 36.222 12.5 50c0 13.78 7.43 25.823 18.502 32.34"/><path fill="none" stroke="#333" stroke-width="2" stroke-linecap="round" stroke-linejoin="round" d="M19.737 59.996c.5 1.385 1.1 2.723 1.79 4.003M18 50c0 2.056.21 4.063.61 6M27 28.788c-4.18 4.04-7.17 9.303-8.39 15.212"/><path fill="none" stroke="#333" stroke-width="4" stroke-linecap="round" stroke-linejoin="round" d="M76.997 10.302C69.307 5.062 60.012 2 50 2 39.103 2 28.556 6.385 20.5 12.5M90.36 76C95.193 68.508 98 59.583 98 50c0-10.013-3.063-19.31-8.305-27M22.996 89.693C30.688 94.936 39.984 98 50 98c11.354 0 21.783-3.938 30-10.523M8.418 26C4.336 33.06 2 41.256 2 50c0 10.01 3.063 19.306 8.303 26.997M14.002 23c3.313 0 6-2.687 6-6s-2.688-6-6-6S8 13.687 8 17M20 82.998c0-3.313-2.688-6-6-6s-5.998 2.688-5.998 6 2.687 6 6 6M86.002 11c3.313 0 6 2.687 6 6s-2.688 6-6 6S80 20.313 80 17M92 83c0 3.312-2.688 6-6 6s-5.998-2.688-5.998-6 2.687-6 6-6"/><path fill="none" stroke="#333" stroke-width="4" stroke-linecap="round" stroke-linejoin="round" d="M50.766 8.75c-7.58 0-14.675 2.064-20.766 5.65l9.922 18.562c3.126-2.024 6.844-3.212 10.846-3.212 4 0 7.718 1.188 10.843 3.21l9.923-18.56c-6.093-3.586-13.186-5.65-20.767-5.65z"/><path fill="none" stroke="#333" stroke-width="2" stroke-linecap="round" stroke-linejoin="round" d="M49.703 15c-5.368 0-10.39 1.462-14.703 4"/><path fill="#FFF" stroke="#333" stroke-width="2" stroke-linecap="round" stroke-linejoin="round" d="M43 21c-2.853.676-5.542 1.773-8 3.22"/><path fill="none" stroke="#333" stroke-width="4" stroke-linecap="round" stroke-linejoin="round" d="M50.766 90.75c7.58 0 14.675-2.064 20.766-5.65L61.61 66.54c-3.125 2.023-6.843 3.21-10.843 3.21-4.002 0-7.72-1.188-10.846-3.212L30 85.1c6.09 3.586 13.185 5.65 20.766 5.65z"/><path fill="none" stroke="#333" stroke-width="2" stroke-linecap="round" stroke-linejoin="round" d="M52 84.175c5.368 0 10.39-1.462 14.703-4"/></svg>