<svg id="Layer_1" xmlns="http://www.w3.org/2000/svg" viewBox="0 0 100 100"><style>.st0{fill:none;stroke:#333333;stroke-width:4;stroke-linecap:round;stroke-linejoin:round;} .st1{fill:#33C3F4;} .st2{fill:#8DE7FF;} .st3{fill:none;stroke:#333333;stroke-width:2;stroke-linecap:round;stroke-linejoin:round;}</style><path class="st0" d="M13.7 25H2M13.7 35.8h-2.8M13.7 73H7.6M98 43.9h-4.1M81.9 92h-57c-5.8 0-10.5-4.7-10.5-10.5v-63C14.4 12.7 19.1 8 24.9 8h57c5.8 0 10.5 4.7 10.5 10.5v63c0 5.8-4.7 10.5-10.5 10.5z"/><path class="st1" d="M66.1 48.4c2.1-.8 6.2-2.7 6.2-10.1 0-3.6-2.8-12.8-15.5-12.8H34.2v49h23.1c16.6 0 17-10.5 17-13.2 0-9.3-5-12-8.2-12.9zM46.5 34h7.2c4.6 0 5.5 4.8 5.5 6.3 0 1.6-.5 3.7-5.6 3.7h-7.1V34zm8.1 31.3h-9.2V52.1h9.2c6.4 0 6.9 6 6.9 7.6 0 1.6-.4 5.6-6.9 5.6z"/><path class="st2" d="M66.5 47.8c-1 .8-2.6 1.9-3.3 2.2 11.1 5.6 9.5 8 11.1 10 1.1-5.5-6.7-11.1-7.8-12.2zm4.9-12.4c-1.2-4.2-5-9.9-15.1-9.9H33.8v49h3.8V30h20.9c6.7 0 10.6 2.5 12.9 5.4z"/><path class="st3" d="M65.3 48.4c2-.8 6.1-2.7 6.1-9.9C71.4 35 68.7 26 56.1 26H33.4v48h23.3c16.4 0 16.7-10.3 16.7-12.9 0-9.2-5-11.8-8.1-12.7zm-19-14.1h7.1c4.1 0 5.1 4.7 5.1 6.2 0 1.6-.5 3.6-5.2 3.6h-7v-9.8zM53.9 65h-7.5V52h7.5c6.3 0 6.9 5.9 6.9 7.4 0 1.6-.4 5.6-6.9 5.6z"/><path class="st3" d="M35.9 84H23.4c-1.1 0-2-.9-2-2V18c0-1.1.9-2 2-2h19.1M52.7 84h-7.8M75.3 16h9.1c1.1 0 2 .9 2 2v64c0 1.1-.9 2-2 2H64.1M51.6 16h15.5M38.4 52.2v15.6M38.4 38.9v5.5"/></svg>