<svg baseProfile="tiny" xmlns="http://www.w3.org/2000/svg" viewBox="0 0 100 100.7"><path fill="none" stroke="#333" stroke-width="4" stroke-linecap="round" stroke-linejoin="round" d="M69.2 80.7v-3.3c0-8.4 5-14.9 9.7-22 3.6-5.4 5.7-12 5.7-19C84.5 17.4 69.1 2 50 2S15.5 17.4 15.5 36.5c0 7.6 2.5 14.6 6.6 20.3 5 6.8 10 13.5 10 21.9v2"/><path fill="none" stroke="#333" stroke-width="2" stroke-linecap="round" stroke-linejoin="round" d="M28.1 22.2c-1.5 2.6-2.5 5.5-3 8.6M37.9 12.5c-2 1.1-3.8 2.4-5.4 4"/><path fill="#33C3F4" stroke="#333" stroke-width="4" stroke-linecap="round" stroke-linejoin="round" d="M35.5 88.7c2.4 5.9 8.2 10 15 10s12.6-4.1 15-10"/><path fill="none" stroke="#333" stroke-width="4" stroke-linecap="round" stroke-linejoin="round" d="M69.7 73.7v14h-38v-14"/><path fill="none" stroke="#333" stroke-width="2" stroke-linecap="round" stroke-linejoin="round" d="M32.2 81.7h37"/><path fill="none" stroke="#333" stroke-width="4" stroke-linecap="round" stroke-linejoin="round" d="M32.7 74.7h36M65.5 37.6v35.1M35.5 72.7V37.6"/><path fill="none" stroke="#333" stroke-width="2" stroke-linecap="round" stroke-linejoin="round" d="M43.6 29c2.3.7 4.7 1 7.1 1 2.7 0 5.4-.4 7.9-1.3"/><path fill="#33C3F4" d="M57.2 28.8c-2.4.8-4.9 1.2-7.5 1.2-2.1 0-4.2-.3-6.2-.8l-8 8.4v2.5c4.3 2.3 9.3 3.6 14.5 3.6 5.6 0 10.9-1.5 15.5-4.2v-2l-8.3-8.7z"/><path fill="#8DE7FF" d="M42.6 29l-8.1 8.6v2.5c2.9 1.6 6.2 2.6 9.6 3.2 1.3-4.1 2.8-8.8 4.2-13.4-2-.1-3.8-.4-5.7-.9z"/><path fill="none" stroke="#333" stroke-width="4" stroke-linecap="round" stroke-linejoin="round" d="M35.5 40.1c4.3 2.3 9.3 3.6 14.5 3.6 5.6 0 10.9-1.5 15.5-4.2v-2l-15-15.9-15 15.9v2.6"/><path fill="none" stroke="#333" stroke-width="2" stroke-linecap="round" stroke-linejoin="round" d="M43.5 44.7v28M57.5 44.7v28M50.5 6.7v10M79.5 36.7h-10M64.6 21.7l-4.1 4M35.4 21.7l4.1 4M31.5 36.7h-10"/></svg>