<svg id="Layer_1" xmlns="http://www.w3.org/2000/svg" viewBox="0 0 100 100"><style>.st0{fill:#33C3F4;} .st1{fill:#8DE7FF;} .st2{fill:none;stroke:#333333;stroke-width:2;stroke-linecap:round;stroke-linejoin:round;} .st3{fill:none;stroke:#333333;stroke-width:4;stroke-linecap:round;stroke-linejoin:round;} .st4{fill:#33C3F4;stroke:#333333;stroke-width:2;stroke-linecap:round;stroke-linejoin:round;}</style><path class="st0" d="M12 10h13v88H12z"/><path class="st1" d="M12 10.1h13V17H12z"/><circle class="st2" cx="19" cy="43.5" r="3"/><circle class="st2" cx="19" cy="66.5" r="3"/><path class="st2" d="M56.3 57H66M26 57h24.2M43 64h23M26 64h9.7M45.4 77H66M26 77h13.3M49 83h17M45.4 38H66M26 38h13.3M36 24h17"/><path class="st3" d="M12 10h68v88H12z"/><path class="st2" d="M75 25v73M25 98V10"/><path class="st3" d="M18 10V2h70v86h-8"/><path class="st4" d="M75 25H61V11"/><path class="st2" d="M61 11l14 14"/></svg>