<svg baseProfile="tiny" xmlns="http://www.w3.org/2000/svg" viewBox="0 0 100 100"><path fill="none" stroke="#333" stroke-width="4" stroke-linecap="round" stroke-linejoin="round" d="M20.2 68.5h-18M20.2 75.5H12M15.1 25.5H2M98 65.5h-9.7M92.2 55.5h-4.4"/><path fill="#33C3F4" d="M77 32.4l.9-9.3H31v8.4h23.8l-.1 1.8-21.8 8.8.8 8.8h32.2l-.7 12.5-10.5 3h-.1l-10.2-2.6-.6-6.2h-9.5l1.2 13.2 19.2 5.7 17.8-5.6L75 41.4l-20.4.1.1-.2"/><path fill="#8DE7FF" d="M33.3 57.6h9.2v2.9h-9.2zM31 23.5h45v2.9H31z"/><path fill="none" stroke="#333" stroke-width="4" stroke-linecap="round" stroke-linejoin="round" d="M84.2 81.6c-.1 1.2-1 2.2-2.1 2.5l-26.5 7.1c-1.3.3-2.6.3-3.9 0l-26.5-7.1c-1.2-.3-2-1.3-2.1-2.5l-6.6-71c-.1-1.1.7-2 1.8-2H89c1.1 0 1.9.9 1.8 2l-6.6 71z"/><path fill="none" stroke="#333" stroke-width="2" stroke-linecap="round" stroke-linejoin="round" d="M82.5 34.6l1.7-19.2H54v7.7M81.2 50l.8-8.6M80.3 59.6l.4-4.8M54 77v6.5l.1 1.9 24.6-6.6 1.2-13.5"/><path fill="none" stroke="#333" stroke-width="2" stroke-linecap="round" stroke-linejoin="round" d="M76 32.5l.9-9-46.9-.1 1.1 8.1h23.8l-1.2.6-21.7 10 .7 8.4h32.2l-.7 12.9-10.5 3h-.1l-10.2-2.6-.6-6.2h-9.5l1.2 13.2 19.2 5.7 19.1-5.6 2.4-30.3-21.6-.1h.1z"/><path fill="none" stroke="#333" stroke-width="2" stroke-linecap="round" stroke-linejoin="round" d="M71.2 50.9v-5.7H60.7"/></svg>