<?xml version="1.0" encoding="utf-8"?>
<!-- Generator: Adobe Illustrator 19.2.0, SVG Export Plug-In . SVG Version: 6.00 Build 0)  -->
<svg version="1.1" id="Layer_1" xmlns="http://www.w3.org/2000/svg" xmlns:xlink="http://www.w3.org/1999/xlink" x="0px" y="0px"
	 viewBox="0 0 17 18" style="enable-background:new 0 0 17 18;" xml:space="preserve">
<style type="text/css">
	.st0{fill:#FFFFFF;}
</style>
<path class="st0" d="M1.7,0.2C0.9-0.2,0,0.3,0,1.1v15.8c0,0.8,0.9,1.3,1.7,0.9L3,17.2V2C3,1.9,3,1.8,3.1,1.7
	c0.1-0.1,0.2-0.1,0.4-0.1h0.8L1.7,0.2z M16.4,8.1L15,7.3v3.4l1.5-0.8C17.2,9.5,17.2,8.5,16.4,8.1z M13.7,2.5h-0.6v4.7l-0.8-0.6
	l-0.7-0.5l-1.5,1V2.5l-3.6,0L4,2.5v14.1l10-5.4V2.8C14,2.7,13.9,2.5,13.7,2.5z"/>
</svg>
