<svg baseProfile="tiny" xmlns="http://www.w3.org/2000/svg" viewBox="0 0 51 41"><path fill="#33C3F4" d="M48.5 6.1H48v28c0 .3-.2.5-.5.5-12.1.1-22 2.5-22 2.5s-9.9-2.5-22-2.5c-.3 0-.5-.2-.5-.5v-28h-.5c-1.1 0-2 .9-2 2v28.5c0 1.1.9 2 2 2h19c.4 0 .7.2.9.5.5.9 1.1 1.4 2.1 1.4h2c1 0 1.6-.5 2.1-1.4.2-.3.5-.5.9-.5h19c1.1 0 2-.9 2-2V8.1c0-1.1-.9-2-2-2z"/><path fill="#8DE7FF" d="M49.5 36.5h-19c-.4 0-.7.2-.9.5-.5.9-1.1 2-2.1 2h-2c-1 0-1.6-1.1-2.1-2-.2-.3-.5-.5-.9-.5H4c-1.1 0-2-.9-2-2V6.4c-.6.3-1.5 1-1.5 1.7v28.5c0 1.1.9 2 2 2h19c.4 0 .7.2.9.5.5.9 1.1 1.4 2.1 1.4h2c1 0 1.6-.5 2.1-1.4.2-.3.5-.5.9-.5h19c1.1 0 2-.9 2-2v-.4c-.3.2-.6.3-1 .3z"/><path fill="none" stroke="#333" stroke-linecap="round" stroke-linejoin="round" d="M3 6.1h-.5c-1.1 0-2 .9-2 2v28.5c0 1.1.9 2 2 2h19c.4 0 .7.2.9.5.5.9 1.1 1.4 2.1 1.4h2c1 0 1.6-.5 2.1-1.4.2-.3.5-.5.9-.5h19c1.1 0 2-.9 2-2V8.1c0-1.1-.9-2-2-2H48"/><path fill="none" stroke="#333" stroke-linecap="round" stroke-linejoin="round" d="M25.5 37.1s9.9-2.5 22-2.5c.3 0 .5-.2.5-.5V3.6c0-.3-.2-.5-.5-.5H46"/><path fill="none" stroke="#333" stroke-linecap="round" stroke-linejoin="round" d="M25.5 6.6S29.2.6 45 .5c.3 0 .5.2.5.5v29c0 .3-.2.5-.5.5-15.9.1-19.5 6.1-19.5 6.1M28.9 10S31.4 6 42 6M28.9 16.5s2.5-4 13.1-4M28.9 23s2.5-4 13.1-4M28.9 30s2.5-4 13.1-4M25.5 37.1s-9.9-2.5-22-2.5c-.3 0-.5-.2-.5-.5V3.6c0-.3.2-.5.5-.5H5"/><path fill="none" stroke="#333" stroke-linecap="round" stroke-linejoin="round" d="M25.5 36.6s-3.7-6-19.5-6.1c-.3 0-.5-.2-.5-.5V1c0-.3.2-.5.5-.5 15.9.1 19.5 6.1 19.5 6.1v30zM22.1 10S19.6 6 9 6M22.1 16.5s-2.5-4-13.1-4M22.1 23S19.6 19 9 19M22.1 30S19.6 26 9 26"/></svg>