<svg xmlns="http://www.w3.org/2000/svg" height="100" width="100"><g transform="translate(-4.554 -4.82) scale(.36543)"><path d="M156.182 277.864l.067.124m-.138-.254l.07.606M27.372 92.042l-.678.433-1.086 1.03-.808 1.175-.497 1.275-.168 1.326V272.774l.168 1.326.497 1.274.807 1.174 1.086 1.03 1.324.845 1.51.628.065.02 1.607.38 1.68.127 10-.002 10-.003 10-.002 10-.002 10-.003 10-.002 10-.003 10-.002 10-.002 10-.003 9.413-.002.333-.093.075-.063.17-.33v-1.063M43.04 74.584l-6.745-1.003-1.633-.113-.086.003-1.593.15-1.47.41-1.286.653-1.057.873-.785 1.058-.483 1.203-.367.947-.163 1.3v11.978m115.465 186.042l.033-.084m0 0l.334-.863v-.09M27.372 92.042v162.543l.163 1.35.484 1.346.784 1.292 1.056 1.187.063.06 1.263 1.018 1.44.83 1.562.61 1.634.373 9.89 1.473 9.892 1.47 9.89 1.473 9.892 1.472 9.89 1.472 9.892 1.47 9.89 1.473 9.892 1.472 9.892 1.47 9.89 1.473 7.49 1.115m-60.638-214.8l-9.31-3.654-9.308-3.653-9.31-3.652-2.264-.888-1.42-.428-.15-.022-1.385-.157-1.276.128-1.118.407-.918.67-.84.822-.682.907-.42 1.11-.142 1.27V90.47m99.83 186.574l.23.016.104-.013.06-.008.84-.824.142-.272v-.953M43.04 90.47v140.594l.142 1.38.018.15.412 1.41.67 1.416.9 1.363 1.097 1.26 1.25 1.106 1.36.91 1.42.687 9.308 3.653 9.31 3.653 9.308 3.653 9.31 3.652 9.308 3.653 9.31 3.654 9.308 3.653 9.31 3.653 9.308 3.653 8.707 3.416.073.004M81.584 90.456V206.86l.09 1.394.26 1.506.423 1.567.57 1.57.694 1.508.793 1.393.86 1.222.897 1.01 7.14 7.002 7.14 7.002 7.138 7.002 7.14 7.003 7.138 7 7.14 7.003 7.14 7.002 6.724 6.597m0 0l.334.327 1.04 1.02.442.433.213.093.197.03 1.326-.52.117-.154.076-.24-.002-4.27v-11.325m-4.946-176.78l-7.14-7.003-7.14-7.002-7.14-7-7.14-7.003-7.14-7.003-7.14-7.002-7.14-7-3.806-3.735-.898-.752-.86-.464-.227-.08-.808-.164-.71.15-1.325.52-.58.46-.433.753-.11.208-.26.996-.088 1.22v58.1m60.084-.02v104.379l.008 1.36.025 1.477.04 1.564.054 1.59.066 1.555.075 1.46.08 1.31.087 1.128.768 8.986m0 0l.334 3.905.852 9.965.19 2.21.85 9.963.853 9.963.664 7.787.852 9.963.434 5.07.094.32.06.136.19.092 1.567-.05.183-.105.118-.465V86.785l-.85-9.964-.853-9.962-.852-9.964-.852-9.964-.852-9.963-.85-9.964-.687-8.027-.086-.88-.08-.588-.076-.287-.105-.402-.233-.16-1.567.05-.07.024-.222.175-.08.41-.052.332-.04.628-.024.903-.008 1.162v70.095m14.514 181.37l6.284-7.78 6.283-7.78 6.283-7.778 6.283-7.78 6.284-7.78 6.283-7.78 6.283-7.78 2.426-3.002.753-1.06.72-1.272.664-1.437.58-1.55.478-1.6.355-1.593.22-1.52.073-1.398V90.25m0 0V28.412l-.074-1.215-.22-.98-.354-.712-.14-.215-.487-.426-1.4-.438-.594-.11-.677.21-.234.094-.72.513-.753.803-6.284 7.78-6.285 7.778-6.284 7.778-6.283 7.78-6.284 7.778-6.284 7.78-6.286 7.778-5.053 6.256-.11.264-.072.296v187.19l.07.236.134.145 1.402.437.2-.04.186-.107.74-.914 1.348-1.67.46-.57.084-.103m0 4.598l9.06-4.233 9.06-4.232 9.06-4.233 9.06-4.233 9.06-4.233 9.06-4.232 9.06-4.233 9.06-4.233 9.06-4.233 5.53-2.586 1.343-.755 1.284-.98 1.182-1.17 1.038-1.312.85-1.408.633-1.447.39-1.432.132-1.368V90.24M154.29 274.15V275.55l.136.266.942.78.172.01.098-.01.193-.024.268-.125.084-.04M250.105 90.24V51.347l-.002-.183-.134-1.263-.4-1.088-.644-.874-.942-.78-.868-.623-1.058-.35-1.206-.065-1.31.225-.163.028-1.343.5-9.06 4.23-9.06 4.233-9.06 4.232-8.42 3.933m63.388 27.387V75.69l-.16-1.297-.477-1.187-.45-.933-.772-1.03-1.04-.837-1.27-.61-1.446-.36-1.57-.093h-.097l-1.608.17-9.832 1.83-.998.184m-94.467 205.066v.163l.45.933.024.044.07.13m.523.203l9.832-1.83 9.83-1.83 9.832-1.828 9.83-1.83 9.832-1.83 9.83-1.83 9.832-1.828 9.832-1.83 9.83-1.83 9.832-1.828 6.496-1.21 1.61-.427 1.538-.665 1.42-.88 1.242-1.06 1.02-1.2.07-.087.774-1.32.476-1.362.16-1.356V90.887m4.806 4.52v-3.034l-.113-.972-.167-1.317-.496-1.253-.805-1.138-1.085-.98-1.32-.786-.82-.305M156.803 279.05l9.99-.454 9.99-.454 9.99-.454 9.99-.454 9.99-.453 9.988-.453 9.99-.454 9.99-.454 9.99-.455 9.99-.453 9.226-.42 1.675-.204 1.604-.452.048-.022 1.506-.697 1.32-.905 1.084-1.08.805-1.21.496-1.298.167-1.333V95.41M156.182 278.34v.55l.17.33.074.063.333.093 10-.003 10-.003 10-.003 10-.004 10-.003 10-.003 10-.003 10-.004 10-.003 10-.003 9.413-.003 1.68-.128 1.606-.38.064-.02 1.51-.628 1.324-.845 1.087-1.032.807-1.175.497-1.275.167-1.326V97.04l-.167-1.326-.12-.306M156.182 278.34v.55l.17.33.074.063.333.093 10-.003 10-.003 10-.003 10-.004 10-.003 10-.003 10-.003 10-.004 10-.003 10-.003 9.413-.003 1.68-.128 1.606-.38.064-.02 1.51-.628 1.324-.845 1.087-1.032.807-1.175.497-1.275.167-1.326V97.04l-.167-1.326-.12-.306M27.372 92.042l-.678.433-1.086 1.03-.808 1.175-.497 1.275-.168 1.326V272.774l.168 1.326.497 1.274.807 1.174 1.086 1.03 1.324.845 1.51.628.065.02 1.607.38 1.68.127 10-.002 10-.003 10-.002 10-.002 10-.003 10-.002 10-.003 10-.002 10-.002 10-.003 9.413-.002.333-.093.075-.063.17-.33v-1.063" fill="none" stroke="#333" stroke-width="4" stroke-linejoin="round"/><animate attributeName="display" begin="-0.240s" dur="0.240s" keyTimes="0.0;0.167;0.333;0.5;0.667;0.833;1" repeatCount="indefinite" values="none;none;none;none;none;inline;none"/></g><g display="none" transform="translate(-4.554 -4.82) scale(.36543)"><path d="M156.066 277.584l.116.686m0 0v.16M26.122 93.017l-.514.488-.808 1.175-.497 1.275-.168 1.326V272.774l.168 1.326.497 1.274.807 1.174 1.086 1.03 1.324.845 1.51.628.065.02 1.607.38 1.68.127 10-.002 10-.003 10-.002 10-.002 10-.003 10-.002 10-.003 10-.002 10-.002 10-.003 9.413-.002.333-.093.075-.063.17-.33v-.96M38.323 77.456l-3.275-.382-1.65-.064-.075.007-1.61.2-1.485.454-1.3.694-1.07.906-.792 1.082-.488 1.218-.29.957-.166 1.307v9.183M142.87 278.103l.234-.77v-.04M26.122 93.016V258.353l.164 1.344.49 1.332.792 1.266 1.068 1.155.076.06 1.275.978 1.456.786 1.58.563 1.65.32 9.932 1.16 9.933 1.16 9.932 1.16 9.933 1.158 9.933 1.16 9.932 1.158 9.933 1.16 9.933 1.158 9.933 1.16 9.933 1.16 8.204.957M71.834 64.783l-9.5-3.127-9.498-3.127-5.945-1.958-1.483-.36-.136-.014-1.447-.09-1.334.188-1.17.46-.96.714-.736.86-.714.94-.44 1.13-.147 1.278V90.47M142.87 277.367h.04l.154-.028.04-.048.696-.813.15-.28v-.66M38.322 90.47V236.197l.148 1.374.04.148.432 1.392.7 1.383.94 1.32 1.147 1.206 1.307 1.046 1.42.846 1.483.617 9.498 3.127 9.5 3.128 9.497 3.13 9.498 3.127 9.498 3.128 9.5 3.128 9.497 3.128 9.5 3.128 9.497 3.128 9.498 3.128 1.675.55.273.007M71.833 90.46v120.734l.1 1.388.3 1.49.486 1.54.652 1.532.796 1.465.908 1.34.985 1.168 1.03.952 7.81 6.246 7.81 6.246 7.81 6.245 7.81 6.246 7.81 6.246 7.81 6.245 7.81 6.245 7.808 6.246 3.302 2.64m0 0l.234.188.845.676.232.186.237.08.192.017 1.24-.596.102-.16.08-.245-.002-4.27v-.75M128.67 73.415l-7.81-6.245-7.812-6.246-7.81-6.245-7.81-6.246-7.81-6.245-7.81-6.246-3.117-2.49-1.028-.696-.986-.41-.22-.066-.926-.113-.81.195-1.242.597-.666.497-.495.778-.084.215-.3 1.01-.1 1.226v53.77m56.836-.02v105.312l.024 1.357.073 1.474.118 1.56.16 1.582.194 1.547.22 1.45.242 1.3.254 1.117 2.485 9.686 2.486 9.686 2.485 9.687 2.486 9.685 2.485 9.686.49 1.91m0 0l.234.91.845 3.294 2.082 8.12 1.128 4.396.093.313.094.132.195.08 1.55-.153.172-.115.053-.224.03-.248-.002-4.283V86.772l-2.484-9.687-2.484-9.686-2.484-9.687-2.485-9.687-2.485-9.686-2.485-9.686-2.294-8.942-.255-.87-.105-.352-.253-.605-.233-.292-.24-.146-1.55.153-.208.033-.207.19-.168.356-.124.666-.033.364-.073.906-.025 1.162V90.44m65.56-68.31l-.386-.4-1.466-.347-.47-.078-.538.248-.236.11-.572.553-.598.845-5.23 8.525-5.23 8.523-5.228 8.524-5.23 8.524-5.23 8.523-5.23 8.523-5.228 8.524-2.332 3.8-.08.27-.008.032-.057.267v187.191l.067.23.147.138 1.466.347.2-.054.158-.117.927-1.51 1.613-2.63.592-.966.13-.212.002-.004 5.23-8.523 5.228-8.524 5.23-8.524 5.228-8.525 5.23-8.524 5.228-8.523 4.3-7.01.598-1.103.57-1.31.53-1.476.46-1.582.38-1.628.28-1.61.175-1.534.058-1.402V25.205l-.06-1.21-.173-.968-.28-.693-.164-.205m-40.385 251.192v1.822l.027.164.126.26 1.045.725.18.004.235-.044.04-.007.552-.307.13-.073h.002l8.742-4.858 8.74-4.86 8.742-4.856 8.74-4.857 8.742-4.857 8.74-4.857 8.742-4.858 8.742-4.857 8.74-4.857 2.172-1.206 1.252-.824 1.197-1.044 1.104-1.23.967-1.365.794-1.45.59-1.48.363-1.452.124-1.375V46.217l-.123-1.238-.027-.2-.37-1.07-.602-.84-.81-.58-1.044-.727-.987-.297-1.126-.003-.2.044-1.198.286-1.25.566-8.742 4.856-8.742 4.856-8.742 4.856-8.74 4.857-5.802 3.223m-39.45 211.445v.277l.16.292.448.762.09.153.024.007h.002m.435.054l9.75-2.22 9.75-2.222 9.75-2.222 9.75-2.22 9.75-2.223 9.75-2.22 9.75-2.222 9.75-2.22 9.752-2.223 9.75-2.22 5.213-1.19 1.577-.487 1.51-.723 1.39-.932 1.217-1.107 1-1.238.055-.09.757-1.347.466-1.38.158-1.362V71.21l-.158-1.29-.467-1.17-.54-.913-.758-1.003-1.02-.797-1.242-.562-1.418-.305-1.54-.037-.108.004-1.577.23-9.75 2.22-5.473 1.248m-86.603 210.07l9.98-.654 9.978-.652 9.978-.654 9.98-.654 9.978-.653 9.978-.654 9.98-.653 9.978-.654 9.978-.653 9.98-.654 9.023-.592 1.672-.238 1.598-.484 1.472-.712.07-.037 1.317-.93 1.08-1.102.802-1.227.494-1.308.167-1.336V89.885l-.167-1.315-.163-.968-.494-1.243-.804-1.123-1.08-.96-1.317-.76-1.503-.528-1.303-.225m7.45 14.255v-.203l-.168-1.326-.453-1.16m-4.767 184.27l1.51-.632 1.324-.848 1.086-1.033.807-1.176.497-1.275.167-1.318V97.63m-118.735 180.8v.46l.17.33.074.063.333.093 10-.003 10-.003 10-.003 10-.004 10-.003 10-.003 10-.003 10-.004 10-.003 10-.003 9.413-.003 1.68-.128 1.606-.38.064-.02 1.51-.628 1.324-.845 1.087-1.032.807-1.175.497-1.275.167-1.326V97.04l-.002-.02M26.122 93.017l-.514.488-.808 1.175-.497 1.275-.168 1.326V272.774l.168 1.326.497 1.274.807 1.174 1.086 1.03 1.324.845 1.51.628.065.02 1.607.38 1.68.127 10-.002 10-.003 10-.002 10-.002 10-.003 10-.002 10-.003 10-.002 10-.002 10-.003 9.413-.002.333-.093.075-.063.17-.33v-.96" fill="none" stroke="#333" stroke-width="4" stroke-linejoin="round"/><animate attributeName="display" begin="-0.200s" dur="0.240s" keyTimes="0.0;0.167;0.333;0.5;0.667;0.833;1" repeatCount="indefinite" values="none;none;none;none;none;inline;none"/></g><g display="none" transform="translate(-4.554 -4.82) scale(.36543)"><path d="M156.01 277.443l.167.73m0 0l.005.282M25.267 94l-.467.68-.497 1.275-.168 1.326V272.774l.168 1.326.497 1.274.807 1.174 1.086 1.03 1.324.845 1.51.628.065.02 1.607.38 1.68.127 10-.002 10-.003 10-.002 10-.002 10-.003 10-.002 10-.003 10-.002 10-.002 10-.003 9.413-.002.333-.093.075-.063.17-.33v-.87M34.49 80.22l-.31-.027-1.664-.018-.065.007-1.62.243-1.496.495-1.31.73-1.076.933-.8 1.105-.49 1.23-.225.965-.166 1.31v6.808M142.87 278.195l.16-.686v-.045M25.266 94v167.713l.166 1.34.492 1.318.8 1.247 1.075 1.126 1.31.96.06.04 1.467.746 1.59.52 1.663.276 9.96.884 9.962.885 9.96.885 9.96.884 9.962.885 9.96.884 9.962.885 9.96.883 9.96.885 9.962.885 8.704.773m.565-1.243l.103-.025m-79.784-211l-9.643-2.65-9.642-2.647-.585-.16-1.535-.293-.123-.01-1.5-.024-1.38.25-1.21.51-.994.758-.738.973-.636.89-.455 1.15-.154 1.284v23.806m108.38 187.166l.04-.01.12-.165.517-.726.155-.286v-.43M34.492 90.47V241.187l.152 1.367.455 1.4.05.118.724 1.35.974 1.278 1.187 1.155 1.354.988 1.468.783 1.536.55 9.643 2.65 9.642 2.65 9.642 2.65 9.642 2.65 9.643 2.65 9.642 2.65 9.642 2.65 9.643 2.648 9.642 2.65 9.643 2.65 3.626.996M63.086 90.462v125.452l.113 1.38.332 1.472.54 1.51.73 1.494.887 1.417 1.01 1.286 1.1 1.108 1.148.89 8.335 5.525 8.335 5.525 8.335 5.525 8.336 5.524 8.334 5.524 8.335 5.525 8.334 5.524 8.336 5.525 7.24 4.798m0 0l.16.105.672.446.04.026.258.065.187.008 1.146-.665.085-.165.03-.087.052-.16v-2.77M115.98 67.952l-8.335-5.524-8.335-5.526-8.336-5.524-8.336-5.524-8.335-5.524-3.876-2.568-1.148-.632-1.1-.35-.21-.054-1.033-.056-.905.245-1.146.665-.742.538-.552.81-.34 1.05-.053.197-.114 1.232V90.46m79.784 175.72l.16.368.67 1.557 1.8 4.162 1.042 2.413.126.125.2.067 1.515-.252.16-.126.06-.228V87.08l-.014-.272-.092-.307-3.966-9.18-3.966-9.18-3.966-9.18-3.966-9.178-3.966-9.18-3.966-9.18-3.966-9.18-.577-1.336-.436-.878-.417-.584-.383-.272-.245-.13-.344.05-1.515.253-.19.202-.275.37-.205.68-.126.956-.043 1.208v67.684m0 0v106.821l.044 1.406.013.194.12 1.468.195 1.55.263 1.57.32 1.53.365 1.43.05.186.417 1.343.435 1.135 3.966 9.18 3.965 9.18 3.966 9.18 3.965 9.18 3.965 9.18 3.966 9.18.874 2.025m39.457-64.362l.194-1.547.12-1.47.013-.193.043-1.406V22.7l-.043-1.208-.125-.958-.205-.678-.275-.37-.19-.203-1.514-.252-.342-.05-.245.13-.382.272-.415.584-.434.88-3.953 9.184-3.954 9.185-3.955 9.185-3.954 9.185-3.953 9.185-3.954 9.185-3.954 9.185-.567 1.316-.092.307-.013.27v187.191l.06.227.16.128 1.516.252.2-.067.126-.125 1.107-2.575 1.89-4.39.747-1.736.188-.437.01-.025 3.954-9.185 3.953-9.185 3.953-9.186 3.953-9.186 3.954-9.185 3.953-9.187.58-1.345.433-1.136.415-1.343.052-.186.364-1.432.32-1.53.26-1.57m-28.98 70.24l.002 2.857.05.16.032.09.084.163 1.146.666.187-.008.258-.065.132-.088.747-.497.188-.125.01-.007 8.33-5.53 8.332-5.533 8.33-5.53 8.33-5.533 8.332-5.532 8.33-5.532 8.33-5.532 8.33-5.53 7-4.65 1.147-.89 1.098-1.107 1.012-1.286.886-1.418.728-1.493.54-1.51.333-1.472.112-1.38V41.244l-.113-1.23-.053-.2-.34-1.05-.55-.808-.743-.537-1.145-.667-.905-.245-1.032.057-.21.055-1.098.35-1.147.632-8.33 5.53-8.332 5.532-8.33 5.53-8.332 5.532-8.33 5.53-3.998 2.655m-27.46 207.93v.452l.156.286.617.865.017.025.144.035h.012m.31.008l9.64-2.655 9.642-2.656 9.64-2.656 9.642-2.656 9.64-2.656 9.64-2.656 9.642-2.655 9.64-2.655 9.642-2.656 9.64-2.657 3.603-.992 1.536-.55 1.467-.784 1.354-.99 1.188-1.155.973-1.277.725-1.35.05-.12.455-1.4.154-1.368V66.447l-.154-1.283-.454-1.15-.635-.89-.737-.972-.993-.757-1.21-.512-1.38-.248-1.5.026-.12.01-1.536.294-9.64 2.655-9.643 2.654-.718.198m-78.872 212.26l9.96-.89 9.96-.89 9.96-.89 9.96-.89 9.96-.89 9.96-.89 9.962-.892 9.96-.89 9.96-.89 9.96-.89 8.695-.778 1.663-.277 1.59-.522 1.466-.747.06-.038 1.31-.962 1.077-1.126.8-1.247.49-1.32.167-1.34V86.956l-.166-1.31-.223-.965-.49-1.23-.8-1.104-1.075-.934-1.31-.728-1.495-.495-1.622-.243-.065-.007-1.663.02-.416.037m10.51 17.01l-.016-.864-.168-1.324-.497-1.273-.503-.73M156.182 278.456v.435l.17.33.074.063.333.093 10-.003 10-.003 10-.003 10-.004 10-.003 10-.003 10-.003 10-.004 10-.003 10-.003 9.413-.003 1.68-.128 1.606-.38.064-.02 1.51-.628 1.324-.845 1.087-1.032.807-1.175.497-1.275.167-1.326V97.04l-.003-.032M25.267 94l-.467.68-.497 1.275-.168 1.326V272.774l.168 1.326.497 1.274.807 1.174 1.086 1.03 1.324.845 1.51.628.065.02 1.607.38 1.68.127 10-.002 10-.003 10-.002 10-.002 10-.003 10-.002 10-.003 10-.002 10-.002 10-.003 9.413-.002.333-.093.075-.063.17-.33v-.87" fill="none" stroke="#333" stroke-width="4" stroke-linejoin="round"/><animate attributeName="display" begin="-0.160s" dur="0.240s" keyTimes="0.0;0.167;0.333;0.5;0.667;0.833;1" repeatCount="indefinite" values="none;none;none;none;none;inline;none"/></g><g display="none" transform="translate(-4.554 -4.82) scale(.36543)"><path d="M156.167 278.053l.015.38m-.275-1.238l.26.858M24.717 94.89l-.414 1.065-.168 1.326V272.774l.168 1.326.497 1.274.807 1.174 1.086 1.03 1.324.845 1.51.628.065.02 1.607.38 1.68.127 10-.002 10-.003 10-.002 10-.002 10-.003 10-.002 10-.003 10-.002 10-.002 10-.003 9.413-.002.333-.093.075-.063.17-.33v-.79M31.455 83.016l-1.21.208-1.5.53-1.318.76-1.08.96-.803 1.123-.495 1.243-.165.97-.167 1.315v4.766M142.87 278.274l.104-.61v-.058M24.718 94.89v169.754l.167 1.336.494 1.307.802 1.227 1.08 1.1 1.317.93.07.038 1.472.71 1.598.484 1.67.237 9.98.648 9.98.65 9.978.647 9.978.648 9.98.647 9.978.648 9.98.648 9.978.648 9.98.648 9.978.648 9.032.586m.587-1.177l.07-.12M55.38 69.02l-9.752-2.215-5.343-1.214-1.577-.23-.11-.004-1.54.037-1.417.306-1.242.562-1.02.798-.76 1.003-.54.914-.466 1.17-.157 1.29V90.58m111.415 187.2l.104-.177.365-.62.158-.29v-.295M31.455 90.582v155.373l.157 1.36.467 1.382.757 1.347.054.09 1 1.237 1.22 1.107 1.39.93 1.51.723 1.577.487 9.752 2.216 9.75 2.215 9.752 2.216 9.75 2.216 9.753 2.215 9.75 2.216 9.753 2.216 9.75 2.216 9.753 2.215 9.752 2.216 5.236 1.19M55.378 90.464v130.437l.125 1.375.363 1.452.59 1.478.795 1.45.97 1.367 1.103 1.228 1.198 1.044 1.254.823 8.745 4.85 8.744 4.85 8.744 4.85 8.745 4.852 8.745 4.85 8.745 4.85 8.745 4.85 8.745 4.85 8.745 4.852 2.392 1.327m0 0l.104.058.392.218.132.024.144.026.18-.003 1.046-.726.126-.258.026-.166v-1.764M103.782 64.882l-8.745-4.85-8.746-4.85-8.744-4.85-8.745-4.85-5.676-3.147-1.252-.566-1.198-.286-.2-.043-1.127.004-.987.298-1.047.726-.81.58-.602.84-.37 1.07-.027.2-.124 1.24V90.464m48.402-.016v109.347l.06 1.403.173 1.532.282 1.612.38 1.627.463 1.583.528 1.474.574 1.31.6 1.104 5.238 8.52 5.24 8.516 5.238 8.518 5.24 8.518 5.24 8.517 5.238 8.517 4.594 7.468m0 0l.103.168.524.852 1.523 2.475.85 1.385.16.116.2.055 1.466-.347.147-.136.066-.23-.002-4.273V87.16l-.056-.27-.01-.03-.078-.27-5.24-8.517-5.24-8.517-5.24-8.518-5.24-8.517-5.24-8.516-5.24-8.518-5.24-8.517-2.35-3.824-.6-.846-.573-.552-.235-.11-.54-.247-.47.078-1.467.347-.388.4-.163.206-.282.694-.174.967-.058 1.212V90.45m47.833 183.723l1.182-4.635 2.174-8.524.926-3.63.26-1.02.026-.1 2.472-9.69 2.47-9.69 2.472-9.69 2.472-9.69 2.47-9.69.182-.71.253-1.118.24-1.3.22-1.45.193-1.547.16-1.584.117-1.56.072-1.474.025-1.358V21.24l-.025-1.162-.072-.906-.034-.363-.125-.668-.167-.357-.206-.19-.207-.033-1.55-.153-.24.145-.23.292-.252.606-.106.353-.253.868-2.472 9.69-2.47 9.69-2.472 9.69-2.472 9.69-2.47 9.69-2.472 9.69-2.278 8.93v187.213l.03.248.053.224.173.115 1.55.153.195-.08.093-.132.095-.313m1.182-4.635V274.715l.08.245.1.16 1.24.596.194-.017.238-.08.323-.26.926-.742.26-.208.026-.02 7.804-6.254 7.804-6.252 7.804-6.253 7.804-6.252 7.804-6.253 7.804-6.253 7.804-6.252 7.804-6.253 3.046-2.44 1.03-.954.983-1.167.907-1.343.795-1.466.653-1.532.485-1.54.298-1.49.102-1.388V36.542l-.1-1.226-.3-1.01-.084-.215-.494-.778-.665-.496-1.24-.598-.812-.195-.925.113-.22.067-.984.41-1.03.695-7.804 6.252-7.804 6.252-7.805 6.252-7.804 6.252-7.805 6.252-7.804 6.252L170 73.41m-15.03 201.95v.686l.15.28.736.86.05.01.103.018.147-.003h.025l.14-.003 9.497-3.134 9.495-3.134 9.496-3.135 9.498-3.135 9.496-3.134 9.496-3.134 9.496-3.134 9.496-3.134 9.496-3.135 9.496-3.135 1.65-.544 1.482-.617 1.42-.847 1.306-1.048 1.147-1.207.94-1.32.698-1.382.43-1.392.04-.148.15-1.375V61.465l-.15-1.277-.438-1.13-.713-.94-.735-.86-.96-.713-1.17-.46-1.332-.188-1.447.09-.136.015-1.483.36-9.497 3.134-9.496 3.134-6.078 2.005m-70.117 213.9l9.932-1.164 9.932-1.164 9.93-1.165 9.933-1.164 9.932-1.164 9.932-1.165 9.932-1.165 9.93-1.165 9.933-1.165 9.932-1.165 8.194-.96 1.65-.323 1.578-.564 1.455-.787 1.276-.978.074-.06 1.068-1.154.793-1.267.49-1.333.163-1.345V83.598l-.164-1.307-.29-.957-.49-1.217-.792-1.082-1.068-.905-1.3-.694-1.484-.454-1.61-.198-.075-.006-1.65.065-3.388.397m12.31 13.54l.52.485.808 1.162.497 1.267.168 1.323.04.974V270.51l-.168 1.327-.497 1.283-.807 1.19-1.086 1.046-1.323.867-1.51.653-.06.02-1.606.406-1.68.157-110.046 1.807m.074-.835v.458l.17.33.074.063.333.093 10-.003 10-.003 10-.003 10-.004 10-.003 10-.003 10-.003 10-.004 10-.003 10-.003 9.413-.003 1.68-.128 1.606-.38.064-.02 1.51-.628 1.324-.845 1.087-1.032.807-1.175.497-1.275.167-1.326V97.04l-.027-.218m-250.172-1.93l-.415 1.063-.168 1.326V272.774l.168 1.326.497 1.274.807 1.174 1.086 1.03 1.324.845 1.51.628.065.02 1.607.38 1.68.127 10-.002 10-.003 10-.002 10-.002 10-.003 10-.002 10-.003 10-.002 10-.002 10-.003 9.413-.002.333-.093.075-.063.17-.33v-.79" fill="none" stroke="#333" stroke-width="4" stroke-linejoin="round"/><animate attributeName="display" begin="-0.120s" dur="0.240s" keyTimes="0.0;0.167;0.333;0.5;0.667;0.833;1" repeatCount="indefinite" values="none;none;none;none;none;inline;none"/></g><g display="none" transform="translate(-4.554 -4.82) scale(.36543)"><path d="M156.182 277.977l.13.242m-.165-.31l.035.483M24.394 95.723l-.09.232-.17 1.326V272.774l.17 1.326.496 1.274.807 1.174 1.086 1.03 1.324.845 1.51.628.065.02 1.607.38 1.68.127 10-.002 10-.003 10-.002 10-.002 10-.003 10-.002 10-.003 10-.002 10-.002 10-.003 9.413-.002.333-.093.075-.063.17-.33v-.725M29.116 85.89l-.736.274-1.32.786-1.084.982-.805 1.138-.495 1.253-.167 1.32-.114.97v3.11M142.87 278.34l.064-.547v-.04M24.394 95.722V267.13l.167 1.334.497 1.298.805 1.21 1.084 1.08 1.32.904 1.506.695.048.023 1.603.45 1.675.205 9.99.448 9.99.448 9.99.448 9.99.45 9.99.447 9.99.447 9.99.448 9.99.448 9.99.448 9.99.45 9.23.414m-93.514-207.5L38.88 69.9l-.87-.16-1.61-.17h-.097l-1.57.096-1.447.36-1.27.61-1.04.836-.773 1.032-.45.933-.477 1.186-.16 1.296V91.17m113.818 186.58l.4-.828v-.18M29.116 91.172V250.437l.16 1.355.477 1.364.773 1.318.07.087 1.02 1.2 1.244 1.06 1.42.878 1.54.664 1.608.427 9.833 1.825 9.833 1.823 9.832 1.824 9.833 1.823 9.832 1.824 9.832 1.822 9.833 1.824 9.832 1.823 9.832 1.822 9.832 1.824 6.514 1.208M48.714 90.467V226.045l.132 1.368.39 1.432.633 1.447.85 1.407 1.038 1.312 1.184 1.168 1.285.978 1.343.755 9.063 4.226 9.063 4.226 9.063 4.226 9.062 4.226 9.063 4.227 9.063 4.226 9.063 4.228 9.064 4.226 9.063 4.226 5.733 2.674m0 0l.064.03.118.055.282.034h.01l.17-.012.944-.778.135-.266.002-.165v-1.19M92.27 63.604l-9.064-4.225-9.063-4.226-9.064-4.225-8.293-3.866-1.342-.497-.164-.03-1.31-.223-1.207.065-1.058.352-.87.625-.942.778-.645.874-.398 1.09-.134 1.263-.002.182V90.465m43.556-.014v112.573l.074 1.4.22 1.52.354 1.59.478 1.6.583 1.55.664 1.437.722 1.27.754 1.06 6.292 7.773 6.292 7.772 6.292 7.773 6.292 7.773 6.292 7.772 6.292 7.773 6.292 7.772 2.706 3.343m0 0l.064.08.4.492 1.26 1.56.656.808.187.106.2.04 1.403-.436.133-.145.07-.237V87.282l-.07-.295-.112-.264-6.292-7.772-6.293-7.77-6.292-7.773-6.293-7.772-6.293-7.772-6.292-7.772-6.293-7.77-5.082-6.278-.754-.803-.722-.513-.233-.094-.677-.21-.594.11-1.404.438-.487.428-.142.215-.355.713-.22.98-.073 1.215v61.932m58.6 183.608l.84-9.964.488-5.824.838-9.964.837-9.965.783-9.316.838-9.965.29-3.437.35-4.167.048-.59.39-4.62.083-1.128.08-1.31.073-1.46.065-1.555.053-1.59.04-1.565.023-1.478.007-1.358V20.33l-.008-1.16-.025-.904-.04-.63-.052-.333-.08-.408-.22-.175-.07-.025-1.567-.05-.232.16-.107.403-.073.288-.08.587-.084.88-.838 9.965-.837 9.965-.838 9.964-.837 9.965-.838 9.965-.837 9.965-.675 8.024V273.988l.12.466.18.104 1.568.052.19-.093.06-.137.093-.32m1.328-15.788v16.266l.077.24.117.153 1.326.522.197-.03.214-.092.527-.52 1.126-1.106.35-.344.05-.05 7.132-7.008 7.132-7.01 7.132-7.01 7.13-7.01 7.133-7.008 7.133-7.01 7.132-7.01 6.452-6.34.897-1.01.858-1.223.79-1.392.694-1.51.568-1.57.423-1.566.26-1.506.09-1.394V32.228l-.09-1.22-.26-.994-.108-.21-.43-.75-.58-.46-1.327-.52-.707-.15-.807.163-.226.08-.858.465-.897.754-7.134 7.01-7.133 7.007-7.132 7.01-7.132 7.01-7.133 7.008-7.133 7.01-7.132 7.008-3.923 3.854m-2.34 192.51v.986l.143.273.838.822.145.02h.018l.305-.02.028-.01.05-.02 9.306-3.66 9.305-3.66 9.307-3.658 9.306-3.66 9.307-3.66 9.306-3.658 9.308-3.66 9.306-3.658 9.307-3.66 8.6-3.38 1.418-.687 1.358-.912 1.25-1.107 1.098-1.26.9-1.363.668-1.415.412-1.412.02-.15.14-1.38V56.34l-.14-1.27-.42-1.11-.683-.906-.838-.823-.917-.668-1.12-.406-1.275-.126-1.384.157-.15.02-1.42.43-9.306 3.66-9.306 3.657-9.307 3.66-2.397.94m-61.357 213.357v.058l.364.94m.616.405l9.89-1.477 9.89-1.478 9.89-1.477 9.89-1.477 9.89-1.477 9.89-1.478 9.89-1.477 9.892-1.477 9.89-1.477 9.89-1.478 7.476-1.117 1.634-.37 1.562-.614 1.44-.83 1.262-1.018.064-.06 1.056-1.19.785-1.29.483-1.348.163-1.35V79.83l-.164-1.3-.366-.947-.483-1.203-.785-1.058-1.056-.872-1.287-.653-1.47-.41-1.593-.148-.085-.004-1.633.115-6.865 1.026m-99.013 204.792l9.995-.29 9.996-.292 9.996-.29 9.995-.292 9.995-.29 9.996-.292 9.996-.29 9.996-.29 9.996-.292 9.995-.29 9.336-.273 1.678-.177 1.605-.426.053-.022 1.51-.67 1.32-.885 1.086-1.06.806-1.2.496-1.29.168-1.33V94.41l-.072-.974-.168-1.32-.497-1.262-.806-1.15-1.085-1-.593-.36M156.18 278.393v.496l.17.33.074.063.333.093 10-.003 10-.003 10-.003 10-.004 10-.003 10-.003 10-.003 10-.004 10-.003 10-.003 9.413-.003 1.68-.128 1.606-.38.064-.02 1.51-.628 1.324-.845 1.087-1.032.807-1.175.497-1.275.167-1.326V97.04l-.107-.85m-250.416-.467l-.09.232-.17 1.326V272.774l.17 1.326.496 1.274.807 1.174 1.086 1.03 1.324.845 1.51.628.065.02 1.607.38 1.68.127 10-.002 10-.003 10-.002 10-.002 10-.003 10-.002 10-.003 10-.002 10-.002 10-.003 9.413-.002.333-.093.075-.063.17-.33v-.725" fill="none" stroke="#333" stroke-width="4" stroke-linejoin="round"/><animate attributeName="display" begin="-0.080s" dur="0.240s" keyTimes="0.0;0.167;0.333;0.5;0.667;0.833;1" repeatCount="indefinite" values="none;none;none;none;none;inline;none"/></g><g display="none" transform="translate(-4.554 -4.82) scale(.36543)"><path d="M156.112 277.734l.07.606m-13.312.054l.036-.488M24.224 96.58l-.09.7V272.774l.17 1.326.496 1.274.807 1.174 1.086 1.03 1.324.845 1.51.628.065.02 1.607.38 1.68.127 10-.002 10-.003 10-.002 10-.002 10-.003 10-.002 10-.003 10-.002 10-.002 10-.003 9.413-.002.333-.093.075-.063.17-.33v-.67M27.372 88.627l-.52.317-1.084 1-.806 1.15-.497 1.262-.168 1.32-.073.974v1.93m0 0V269.17l.168 1.33.496 1.29.807 1.197 1.085 1.06 1.322.884 1.51.67.053.02 1.605.426 1.678.177 9.996.285 9.996.285 9.996.286 9.996.284 9.996.285 9.996.285 9.996.285 9.995.285 9.996.285 9.997.286 9.34.266M43.04 74.584l-6.745-1.003-1.633-.113-.086.003-1.593.15-1.47.41-1.286.653-1.057.873-.785 1.058-.483 1.203-.367.947-.163 1.3V92.043m115.534 185.864l.298-.77v-.09M27.372 92.043v162.543l.163 1.35.484 1.346.784 1.292 1.056 1.187.063.06 1.263 1.018 1.44.83 1.562.61 1.634.373 9.89 1.473 9.892 1.47 9.89 1.473 9.892 1.472 9.89 1.472 9.892 1.47 9.89 1.473 9.892 1.472 9.892 1.47 9.89 1.473 7.49 1.115m-60.638-214.8l-9.31-3.653-9.308-3.653-9.31-3.652-2.264-.888-1.42-.428-.15-.022-1.385-.157-1.276.128-1.118.407-.918.67-.84.822-.682.907-.42 1.11-.142 1.27V90.47m99.83 186.574l.037.003.194.013.104-.013.06-.008.84-.824.142-.272v-.953M43.04 90.47v140.594l.142 1.38.018.15.412 1.41.67 1.416.9 1.363 1.097 1.26 1.25 1.106 1.36.91 1.42.687 9.308 3.653 9.31 3.653 9.308 3.653 9.31 3.652 9.308 3.653 9.31 3.654 9.308 3.653 9.31 3.653 9.308 3.653 8.707 3.416.073.004M81.584 90.456V206.86l.09 1.394.26 1.506.423 1.567.57 1.57.694 1.508.793 1.393.86 1.222.897 1.01 7.14 7.002 7.14 7.002 7.138 7.002 7.14 7.003 7.138 7 7.14 7.003 7.14 7.002 6.724 6.597m0 0l.037.036.297.29 1.04 1.023.442.433.213.093.197.03 1.326-.52.117-.154.076-.24-.002-4.27v-11.325m-4.946-176.78l-7.14-7.003-7.14-7.002-7.14-7-7.14-7.003-7.14-7.003-7.14-7.002-7.14-7-3.806-3.735-.898-.752-.86-.464-.227-.08-.808-.164-.71.15-1.325.52-.58.46-.433.753-.11.208-.26.996-.088 1.22V90.456m60.084-.02v104.379l.008 1.36.025 1.477.04 1.564.054 1.59.066 1.555.075 1.46.08 1.31.087 1.128.768 8.986m0 0l.037.43.297 3.475.852 9.965.19 2.21.85 9.963.853 9.963.664 7.787.852 9.963.434 5.07.094.32.06.136.19.092 1.567-.05.183-.105.118-.465V86.785l-.85-9.964-.853-9.962-.852-9.964-.852-9.964-.852-9.963-.85-9.964-.687-8.027-.086-.88-.08-.588-.076-.287-.105-.402-.233-.16-1.567.05-.07.024-.222.175-.08.41-.052.332-.04.628-.024.903-.008 1.162v70.095m63.98-65.146l-.487-.426-1.4-.438-.594-.11-.677.21-.234.094-.72.513-.753.803-6.284 7.78-6.285 7.778-6.284 7.778-6.283 7.78-6.284 7.778-6.284 7.78-6.286 7.778-5.053 6.256-.11.264-.072.296v187.19l.07.236.134.145 1.402.437.2-.04.186-.107.74-.914 1.348-1.67.46-.57.084-.103 6.284-7.78 6.283-7.78 6.283-7.778 6.283-7.78 6.284-7.78 6.283-7.78 6.283-7.78 2.426-3.002.753-1.06.72-1.272.664-1.437.58-1.55.478-1.6.355-1.593.22-1.52.073-1.398V28.41l-.074-1.215-.22-.98-.354-.712-.14-.215m-51.36 248.86v1.233l.003.165.136.266.942.78.172.01.098-.01.193-.024.268-.125.084-.04 9.06-4.233 9.06-4.232 9.06-4.233 9.06-4.233 9.06-4.233 9.06-4.232 9.06-4.233 9.06-4.233 9.06-4.233 5.53-2.586 1.343-.755 1.284-.98 1.182-1.17 1.038-1.312.85-1.408.633-1.447.39-1.432.132-1.368V51.347l-.002-.183-.134-1.263-.4-1.088-.644-.874-.942-.78-.868-.623-1.058-.35-1.206-.065-1.31.225-.163.028-1.343.5-9.06 4.23-9.06 4.233-9.06 4.232-8.42 3.933m-50.8 213.093v.163l.45.933.025.044.07.13.067.124m.455.08l9.832-1.83 9.83-1.83 9.832-1.83 9.83-1.828 9.832-1.83 9.83-1.83 9.832-1.828 9.832-1.83 9.83-1.83 9.832-1.828 6.496-1.21 1.61-.427 1.538-.665 1.42-.88 1.242-1.06 1.02-1.2.07-.087.774-1.32.476-1.362.16-1.356V75.69l-.16-1.297-.476-1.187-.45-.933-.772-1.03-1.04-.837-1.27-.61-1.446-.36-1.57-.093h-.097l-1.608.17-9.832 1.83-.998.184M156.803 279.05l9.99-.454 9.99-.454 9.99-.454 9.99-.454 9.99-.453 9.988-.453 9.99-.454 9.99-.454 9.99-.455 9.99-.453 9.226-.42 1.675-.204 1.604-.452.048-.022 1.506-.697 1.32-.905 1.084-1.08.805-1.21.496-1.298.167-1.333V92.374l-.113-.972-.167-1.317-.496-1.253-.805-1.138-1.085-.98-1.32-.786-.82-.305M156.182 278.34v.55l.17.33.074.063.333.093 10-.003 10-.003 10-.003 10-.004 10-.003 10-.003 10-.003 10-.004 10-.003 10-.003 9.413-.003 1.68-.128 1.606-.38.064-.02 1.51-.628 1.324-.845 1.087-1.032.807-1.175.497-1.275.167-1.326V97.04l-.167-1.326-.12-.306M24.224 96.58l-.09.7V272.774l.17 1.326.496 1.274.807 1.174 1.086 1.03 1.324.845 1.51.628.065.02 1.607.38 1.68.127 10-.002 10-.003 10-.002 10-.002 10-.003 10-.002 10-.003 10-.002 10-.002 10-.003 9.413-.002.333-.093.075-.063.17-.33v-.67" fill="none" stroke="#333" stroke-width="4" stroke-linejoin="round"/><animate attributeName="display" begin="-0.040s" dur="0.240s" keyTimes="0.0;0.167;0.333;0.5;0.667;0.833;1" repeatCount="indefinite" values="none;none;none;none;none;inline;none"/></g><path d="M51.303 94.97c-.93.045-2.562.162-3.715.325-.992.8-2.002 1.552-3.056 2.24-.23.15-.272.488-.088.7l1.032 1.17c.08.094.195.147.314.147h8.612c.12 0 .237-.054.318-.148l1.14-1.328c.19-.22.132-.574-.12-.712-1.646-.905-2.994-1.65-4.437-2.395z" fill="#333" fill-rule="evenodd"/><path style="isolation:auto;mix-blend-mode:normal" d="M94.948 27.453l1.11-.005c1.514 0 2.73 1.213 2.73 2.72v64.55c0 1.508-1.216 2.72-2.73 2.72H4.146c-1.513 0-2.73-1.212-2.73-2.72V30.17c0-1.507 1.217-2.72 2.73-2.72h1.213" color="#000" overflow="visible" solid-color="#000000" fill="none" stroke="#333" stroke-width="1.488"/></svg>